<mxfile host="65bd71144e" modified="2020-10-19T12:15:33.371Z" agent="5.0 (Macintosh; Intel Mac OS X 10_15_7) AppleWebKit/537.36 (KHTML, like Gecko) Code/1.50.1 Chrome/83.0.4103.122 Electron/9.2.1 Safari/537.36" etag="NtolvDm5qEoNOxsXoPsq" version="13.6.5">
    <diagram id="R4nkFg5fsFF5PYBmpg1p" name="ページ1">
        <mxGraphModel dx="1138" dy="785" grid="1" gridSize="10" guides="1" tooltips="1" connect="1" arrows="1" fold="1" page="1" pageScale="1" pageWidth="827" pageHeight="1169" background="#283618" math="0" shadow="0">
            <root>
                <mxCell id="0"/>
                <mxCell id="1" parent="0"/>
                <mxCell id="131" value="&lt;font style=&quot;font-size: 18px&quot;&gt;orders&lt;/font&gt;" style="shape=table;html=1;whiteSpace=wrap;startSize=30;container=1;collapsible=0;childLayout=tableLayout;fontStyle=1;align=center;rounded=0;sketch=0;strokeColor=#001DBC;fillColor=#0050ef;swimlaneFillColor=#4D4D4D;fontColor=#ffffff;" parent="1" vertex="1">
                    <mxGeometry x="10" y="520" width="310" height="110" as="geometry"/>
                </mxCell>
                <mxCell id="132" value="" style="shape=partialRectangle;html=1;whiteSpace=wrap;collapsible=0;dropTarget=0;pointerEvents=0;fillColor=none;top=0;left=0;bottom=0;right=0;points=[[0,0.5],[1,0.5]];portConstraint=eastwest;strokeColor=#DDA15E;fontColor=#FEFAE0;" parent="131" vertex="1">
                    <mxGeometry y="30" width="310" height="40" as="geometry"/>
                </mxCell>
                <mxCell id="133" value="item_id" style="shape=partialRectangle;html=1;whiteSpace=wrap;connectable=0;fillColor=none;top=0;left=0;bottom=0;right=0;overflow=hidden;strokeColor=#DDA15E;fontColor=#FEFAE0;" parent="132" vertex="1">
                    <mxGeometry width="102" height="40" as="geometry"/>
                </mxCell>
                <mxCell id="134" value="&lt;span&gt;references&lt;/span&gt;" style="shape=partialRectangle;html=1;whiteSpace=wrap;connectable=0;fillColor=none;top=0;left=0;bottom=0;right=0;overflow=hidden;strokeColor=#DDA15E;fontColor=#FEFAE0;" parent="132" vertex="1">
                    <mxGeometry x="102" width="78" height="40" as="geometry"/>
                </mxCell>
                <mxCell id="135" value="&lt;span&gt;foreign_key: true&lt;/span&gt;" style="shape=partialRectangle;html=1;whiteSpace=wrap;connectable=0;fillColor=none;top=0;left=0;bottom=0;right=0;overflow=hidden;strokeColor=#DDA15E;fontColor=#FEFAE0;" parent="132" vertex="1">
                    <mxGeometry x="180" width="130" height="40" as="geometry"/>
                </mxCell>
                <mxCell id="205" value="" style="shape=partialRectangle;html=1;whiteSpace=wrap;collapsible=0;dropTarget=0;pointerEvents=0;fillColor=none;top=0;left=0;bottom=0;right=0;points=[[0,0.5],[1,0.5]];portConstraint=eastwest;strokeColor=#DDA15E;fontColor=#FEFAE0;" parent="131" vertex="1">
                    <mxGeometry y="70" width="310" height="40" as="geometry"/>
                </mxCell>
                <mxCell id="206" value="user_id" style="shape=partialRectangle;html=1;whiteSpace=wrap;connectable=0;fillColor=none;top=0;left=0;bottom=0;right=0;overflow=hidden;strokeColor=#DDA15E;fontColor=#FEFAE0;" parent="205" vertex="1">
                    <mxGeometry width="102" height="40" as="geometry"/>
                </mxCell>
                <mxCell id="207" value="&lt;span&gt;references&lt;/span&gt;" style="shape=partialRectangle;html=1;whiteSpace=wrap;connectable=0;fillColor=none;top=0;left=0;bottom=0;right=0;overflow=hidden;strokeColor=#DDA15E;fontColor=#FEFAE0;" parent="205" vertex="1">
                    <mxGeometry x="102" width="78" height="40" as="geometry"/>
                </mxCell>
                <mxCell id="208" value="&lt;span&gt;foreign_key: true&lt;/span&gt;" style="shape=partialRectangle;html=1;whiteSpace=wrap;connectable=0;fillColor=none;top=0;left=0;bottom=0;right=0;overflow=hidden;strokeColor=#DDA15E;fontColor=#FEFAE0;" parent="205" vertex="1">
                    <mxGeometry x="180" width="130" height="40" as="geometry"/>
                </mxCell>
                <mxCell id="118" value="&lt;font style=&quot;font-size: 18px&quot;&gt;addresses&lt;/font&gt;" style="shape=table;html=1;whiteSpace=wrap;startSize=30;container=1;collapsible=0;childLayout=tableLayout;fontStyle=1;align=center;rounded=0;sketch=0;strokeColor=#666666;fillColor=#f5f5f5;fontColor=#333333;swimlaneFillColor=#4D4D4D;" parent="1" vertex="1">
                    <mxGeometry x="460" y="520" width="360" height="270" as="geometry"/>
                </mxCell>
                <mxCell id="93" value="" style="shape=partialRectangle;html=1;whiteSpace=wrap;collapsible=0;dropTarget=0;pointerEvents=0;fillColor=none;top=0;left=0;bottom=0;right=0;points=[[0,0.5],[1,0.5]];portConstraint=eastwest;strokeColor=#DDA15E;fontColor=#FEFAE0;" parent="118" vertex="1">
                    <mxGeometry y="30" width="360" height="34" as="geometry"/>
                </mxCell>
                <mxCell id="94" value="postal_code" style="shape=partialRectangle;html=1;whiteSpace=wrap;connectable=0;fillColor=none;top=0;left=0;bottom=0;right=0;overflow=hidden;strokeColor=#DDA15E;fontColor=#FEFAE0;" parent="93" vertex="1">
                    <mxGeometry width="120" height="34" as="geometry"/>
                </mxCell>
                <mxCell id="95" value="string" style="shape=partialRectangle;html=1;whiteSpace=wrap;connectable=0;fillColor=none;top=0;left=0;bottom=0;right=0;overflow=hidden;strokeColor=#DDA15E;fontColor=#FEFAE0;" parent="93" vertex="1">
                    <mxGeometry x="120" width="120" height="34" as="geometry"/>
                </mxCell>
                <mxCell id="96" value="&lt;span&gt;null:false&lt;/span&gt;" style="shape=partialRectangle;html=1;whiteSpace=wrap;connectable=0;fillColor=none;top=0;left=0;bottom=0;right=0;overflow=hidden;strokeColor=#DDA15E;fontColor=#FEFAE0;" parent="93" vertex="1">
                    <mxGeometry x="240" width="120" height="34" as="geometry"/>
                </mxCell>
                <mxCell id="209" value="" style="shape=partialRectangle;html=1;whiteSpace=wrap;collapsible=0;dropTarget=0;pointerEvents=0;fillColor=none;top=0;left=0;bottom=0;right=0;points=[[0,0.5],[1,0.5]];portConstraint=eastwest;strokeColor=#DDA15E;fontColor=#FEFAE0;" parent="118" vertex="1">
                    <mxGeometry y="64" width="360" height="35" as="geometry"/>
                </mxCell>
                <mxCell id="210" value="prefecture" style="shape=partialRectangle;html=1;whiteSpace=wrap;connectable=0;fillColor=none;top=0;left=0;bottom=0;right=0;overflow=hidden;strokeColor=#DDA15E;fontColor=#FEFAE0;" parent="209" vertex="1">
                    <mxGeometry width="120" height="35" as="geometry"/>
                </mxCell>
                <mxCell id="211" value="string" style="shape=partialRectangle;html=1;whiteSpace=wrap;connectable=0;fillColor=none;top=0;left=0;bottom=0;right=0;overflow=hidden;strokeColor=#DDA15E;fontColor=#FEFAE0;" parent="209" vertex="1">
                    <mxGeometry x="120" width="120" height="35" as="geometry"/>
                </mxCell>
                <mxCell id="212" value="&lt;span&gt;null:false&lt;/span&gt;" style="shape=partialRectangle;html=1;whiteSpace=wrap;connectable=0;fillColor=none;top=0;left=0;bottom=0;right=0;overflow=hidden;strokeColor=#DDA15E;fontColor=#FEFAE0;" parent="209" vertex="1">
                    <mxGeometry x="240" width="120" height="35" as="geometry"/>
                </mxCell>
                <mxCell id="213" value="" style="shape=partialRectangle;html=1;whiteSpace=wrap;collapsible=0;dropTarget=0;pointerEvents=0;fillColor=none;top=0;left=0;bottom=0;right=0;points=[[0,0.5],[1,0.5]];portConstraint=eastwest;strokeColor=#DDA15E;fontColor=#FEFAE0;" parent="118" vertex="1">
                    <mxGeometry y="99" width="360" height="34" as="geometry"/>
                </mxCell>
                <mxCell id="214" value="city" style="shape=partialRectangle;html=1;whiteSpace=wrap;connectable=0;fillColor=none;top=0;left=0;bottom=0;right=0;overflow=hidden;strokeColor=#DDA15E;fontColor=#FEFAE0;" parent="213" vertex="1">
                    <mxGeometry width="120" height="34" as="geometry"/>
                </mxCell>
                <mxCell id="215" value="string" style="shape=partialRectangle;html=1;whiteSpace=wrap;connectable=0;fillColor=none;top=0;left=0;bottom=0;right=0;overflow=hidden;strokeColor=#DDA15E;fontColor=#FEFAE0;" parent="213" vertex="1">
                    <mxGeometry x="120" width="120" height="34" as="geometry"/>
                </mxCell>
                <mxCell id="216" value="&lt;span&gt;null:false&lt;/span&gt;" style="shape=partialRectangle;html=1;whiteSpace=wrap;connectable=0;fillColor=none;top=0;left=0;bottom=0;right=0;overflow=hidden;strokeColor=#DDA15E;fontColor=#FEFAE0;" parent="213" vertex="1">
                    <mxGeometry x="240" width="120" height="34" as="geometry"/>
                </mxCell>
                <mxCell id="217" value="" style="shape=partialRectangle;html=1;whiteSpace=wrap;collapsible=0;dropTarget=0;pointerEvents=0;fillColor=none;top=0;left=0;bottom=0;right=0;points=[[0,0.5],[1,0.5]];portConstraint=eastwest;strokeColor=#DDA15E;fontColor=#FEFAE0;" parent="118" vertex="1">
                    <mxGeometry y="133" width="360" height="34" as="geometry"/>
                </mxCell>
                <mxCell id="218" value="street" style="shape=partialRectangle;html=1;whiteSpace=wrap;connectable=0;fillColor=none;top=0;left=0;bottom=0;right=0;overflow=hidden;strokeColor=#DDA15E;fontColor=#FEFAE0;" parent="217" vertex="1">
                    <mxGeometry width="120" height="34" as="geometry"/>
                </mxCell>
                <mxCell id="219" value="string" style="shape=partialRectangle;html=1;whiteSpace=wrap;connectable=0;fillColor=none;top=0;left=0;bottom=0;right=0;overflow=hidden;strokeColor=#DDA15E;fontColor=#FEFAE0;" parent="217" vertex="1">
                    <mxGeometry x="120" width="120" height="34" as="geometry"/>
                </mxCell>
                <mxCell id="220" value="&lt;span&gt;null:false&lt;/span&gt;" style="shape=partialRectangle;html=1;whiteSpace=wrap;connectable=0;fillColor=none;top=0;left=0;bottom=0;right=0;overflow=hidden;strokeColor=#DDA15E;fontColor=#FEFAE0;" parent="217" vertex="1">
                    <mxGeometry x="240" width="120" height="34" as="geometry"/>
                </mxCell>
                <mxCell id="221" value="" style="shape=partialRectangle;html=1;whiteSpace=wrap;collapsible=0;dropTarget=0;pointerEvents=0;fillColor=none;top=0;left=0;bottom=0;right=0;points=[[0,0.5],[1,0.5]];portConstraint=eastwest;strokeColor=#DDA15E;fontColor=#FEFAE0;" parent="118" vertex="1">
                    <mxGeometry y="167" width="360" height="34" as="geometry"/>
                </mxCell>
                <mxCell id="222" value="building" style="shape=partialRectangle;html=1;whiteSpace=wrap;connectable=0;fillColor=none;top=0;left=0;bottom=0;right=0;overflow=hidden;strokeColor=#DDA15E;fontColor=#FEFAE0;" parent="221" vertex="1">
                    <mxGeometry width="120" height="34" as="geometry"/>
                </mxCell>
                <mxCell id="223" value="string" style="shape=partialRectangle;html=1;whiteSpace=wrap;connectable=0;fillColor=none;top=0;left=0;bottom=0;right=0;overflow=hidden;strokeColor=#DDA15E;fontColor=#FEFAE0;" parent="221" vertex="1">
                    <mxGeometry x="120" width="120" height="34" as="geometry"/>
                </mxCell>
                <mxCell id="224" value="" style="shape=partialRectangle;html=1;whiteSpace=wrap;connectable=0;fillColor=none;top=0;left=0;bottom=0;right=0;overflow=hidden;strokeColor=#DDA15E;fontColor=#FEFAE0;" parent="221" vertex="1">
                    <mxGeometry x="240" width="120" height="34" as="geometry"/>
                </mxCell>
                <mxCell id="225" value="" style="shape=partialRectangle;html=1;whiteSpace=wrap;collapsible=0;dropTarget=0;pointerEvents=0;fillColor=none;top=0;left=0;bottom=0;right=0;points=[[0,0.5],[1,0.5]];portConstraint=eastwest;strokeColor=#DDA15E;fontColor=#FEFAE0;" parent="118" vertex="1">
                    <mxGeometry y="201" width="360" height="35" as="geometry"/>
                </mxCell>
                <mxCell id="226" value="phone_number" style="shape=partialRectangle;html=1;whiteSpace=wrap;connectable=0;fillColor=none;top=0;left=0;bottom=0;right=0;overflow=hidden;strokeColor=#DDA15E;fontColor=#FEFAE0;" parent="225" vertex="1">
                    <mxGeometry width="120" height="35" as="geometry"/>
                </mxCell>
                <mxCell id="227" value="string" style="shape=partialRectangle;html=1;whiteSpace=wrap;connectable=0;fillColor=none;top=0;left=0;bottom=0;right=0;overflow=hidden;strokeColor=#DDA15E;fontColor=#FEFAE0;" parent="225" vertex="1">
                    <mxGeometry x="120" width="120" height="35" as="geometry"/>
                </mxCell>
                <mxCell id="228" value="&lt;span&gt;null:false&lt;/span&gt;" style="shape=partialRectangle;html=1;whiteSpace=wrap;connectable=0;fillColor=none;top=0;left=0;bottom=0;right=0;overflow=hidden;strokeColor=#DDA15E;fontColor=#FEFAE0;" parent="225" vertex="1">
                    <mxGeometry x="240" width="120" height="35" as="geometry"/>
                </mxCell>
                <mxCell id="229" value="" style="shape=partialRectangle;html=1;whiteSpace=wrap;collapsible=0;dropTarget=0;pointerEvents=0;fillColor=none;top=0;left=0;bottom=0;right=0;points=[[0,0.5],[1,0.5]];portConstraint=eastwest;strokeColor=#DDA15E;fontColor=#FEFAE0;" parent="118" vertex="1">
                    <mxGeometry y="236" width="360" height="34" as="geometry"/>
                </mxCell>
                <mxCell id="230" value="order_id" style="shape=partialRectangle;html=1;whiteSpace=wrap;connectable=0;fillColor=none;top=0;left=0;bottom=0;right=0;overflow=hidden;strokeColor=#DDA15E;fontColor=#FEFAE0;" parent="229" vertex="1">
                    <mxGeometry width="120" height="34" as="geometry"/>
                </mxCell>
                <mxCell id="231" value="references" style="shape=partialRectangle;html=1;whiteSpace=wrap;connectable=0;fillColor=none;top=0;left=0;bottom=0;right=0;overflow=hidden;strokeColor=#DDA15E;fontColor=#FEFAE0;" parent="229" vertex="1">
                    <mxGeometry x="120" width="120" height="34" as="geometry"/>
                </mxCell>
                <mxCell id="232" value="foreign_key: true" style="shape=partialRectangle;html=1;whiteSpace=wrap;connectable=0;fillColor=none;top=0;left=0;bottom=0;right=0;overflow=hidden;strokeColor=#DDA15E;fontColor=#FEFAE0;" parent="229" vertex="1">
                    <mxGeometry x="240" width="120" height="34" as="geometry"/>
                </mxCell>
                <mxCell id="234" value="" style="edgeStyle=entityRelationEdgeStyle;fontSize=12;html=1;endArrow=ERzeroToMany;startArrow=ERzeroToOne;strokeColor=#DDA15E;fillColor=#BC6C25;strokeWidth=2;entryX=0;entryY=0.5;entryDx=0;entryDy=0;exitX=1;exitY=0.5;exitDx=0;exitDy=0;" parent="1" source="110" target="67" edge="1">
                    <mxGeometry width="100" height="100" relative="1" as="geometry">
                        <mxPoint x="340" y="300" as="sourcePoint"/>
                        <mxPoint x="440" y="200" as="targetPoint"/>
                    </mxGeometry>
                </mxCell>
                <mxCell id="105" value="&lt;font style=&quot;font-size: 18px&quot;&gt;users&lt;/font&gt;" style="shape=table;startSize=30;container=1;collapsible=0;childLayout=tableLayout;fontStyle=1;align=center;rounded=0;sketch=0;strokeColor=#B20000;swimlaneFillColor=#4D4D4D;gradientDirection=west;labelBackgroundColor=none;labelBorderColor=none;fillColor=#e51400;fontColor=#F0F0F0;whiteSpace=wrap;html=1;" parent="1" vertex="1">
                    <mxGeometry x="10" y="10" width="310" height="360" as="geometry"/>
                </mxCell>
                <mxCell id="164" style="shape=partialRectangle;html=1;whiteSpace=wrap;collapsible=0;dropTarget=0;pointerEvents=0;fillColor=none;top=0;left=0;bottom=0;right=0;points=[[0,0.5],[1,0.5]];portConstraint=eastwest;strokeColor=#DDA15E;fontColor=#FEFAE0;" parent="105" vertex="1">
                    <mxGeometry y="30" width="310" height="42" as="geometry"/>
                </mxCell>
                <mxCell id="165" value="nickname" style="shape=partialRectangle;html=1;whiteSpace=wrap;connectable=0;fillColor=none;top=0;left=0;bottom=0;right=0;overflow=hidden;strokeColor=#DDA15E;fontColor=#FEFAE0;" parent="164" vertex="1">
                    <mxGeometry width="142" height="42" as="geometry"/>
                </mxCell>
                <mxCell id="166" value="string" style="shape=partialRectangle;html=1;whiteSpace=wrap;connectable=0;fillColor=none;top=0;left=0;bottom=0;right=0;overflow=hidden;strokeColor=#DDA15E;fontColor=#FEFAE0;" parent="164" vertex="1">
                    <mxGeometry x="142" width="49" height="42" as="geometry"/>
                </mxCell>
                <mxCell id="167" value="null:false" style="shape=partialRectangle;html=1;whiteSpace=wrap;connectable=0;fillColor=none;top=0;left=0;bottom=0;right=0;overflow=hidden;strokeColor=#DDA15E;fontColor=#FEFAE0;" parent="164" vertex="1">
                    <mxGeometry x="191" width="119" height="42" as="geometry"/>
                </mxCell>
                <mxCell id="172" style="shape=partialRectangle;html=1;whiteSpace=wrap;collapsible=0;dropTarget=0;pointerEvents=0;fillColor=none;top=0;left=0;bottom=0;right=0;points=[[0,0.5],[1,0.5]];portConstraint=eastwest;strokeColor=#DDA15E;fontColor=#FEFAE0;" parent="105" vertex="1">
                    <mxGeometry y="72" width="310" height="41" as="geometry"/>
                </mxCell>
                <mxCell id="173" value="email" style="shape=partialRectangle;html=1;whiteSpace=wrap;connectable=0;fillColor=none;top=0;left=0;bottom=0;right=0;overflow=hidden;strokeColor=#DDA15E;fontColor=#FEFAE0;" parent="172" vertex="1">
                    <mxGeometry width="142" height="41" as="geometry"/>
                </mxCell>
                <mxCell id="174" value="&lt;span&gt;string&lt;/span&gt;" style="shape=partialRectangle;html=1;whiteSpace=wrap;connectable=0;fillColor=none;top=0;left=0;bottom=0;right=0;overflow=hidden;strokeColor=#DDA15E;fontColor=#FEFAE0;" parent="172" vertex="1">
                    <mxGeometry x="142" width="49" height="41" as="geometry"/>
                </mxCell>
                <mxCell id="175" value="&lt;span&gt;null:false&lt;br&gt;uniqueness:true&lt;/span&gt;" style="shape=partialRectangle;html=1;whiteSpace=wrap;connectable=0;fillColor=none;top=0;left=0;bottom=0;right=0;overflow=hidden;strokeColor=#DDA15E;fontColor=#FEFAE0;" parent="172" vertex="1">
                    <mxGeometry x="191" width="119" height="41" as="geometry"/>
                </mxCell>
                <mxCell id="160" style="shape=partialRectangle;html=1;whiteSpace=wrap;collapsible=0;dropTarget=0;pointerEvents=0;fillColor=none;top=0;left=0;bottom=0;right=0;points=[[0,0.5],[1,0.5]];portConstraint=eastwest;strokeColor=#DDA15E;fontColor=#FEFAE0;" parent="105" vertex="1">
                    <mxGeometry y="113" width="310" height="41" as="geometry"/>
                </mxCell>
                <mxCell id="161" value="password" style="shape=partialRectangle;html=1;whiteSpace=wrap;connectable=0;fillColor=none;top=0;left=0;bottom=0;right=0;overflow=hidden;strokeColor=#DDA15E;fontColor=#FEFAE0;" parent="160" vertex="1">
                    <mxGeometry width="142" height="41" as="geometry"/>
                </mxCell>
                <mxCell id="162" value="&lt;span&gt;string&lt;/span&gt;" style="shape=partialRectangle;html=1;whiteSpace=wrap;connectable=0;fillColor=none;top=0;left=0;bottom=0;right=0;overflow=hidden;strokeColor=#DDA15E;fontColor=#FEFAE0;" parent="160" vertex="1">
                    <mxGeometry x="142" width="49" height="41" as="geometry"/>
                </mxCell>
                <mxCell id="163" value="&lt;span&gt;null:false&lt;/span&gt;" style="shape=partialRectangle;html=1;whiteSpace=wrap;connectable=0;fillColor=none;top=0;left=0;bottom=0;right=0;overflow=hidden;strokeColor=#DDA15E;fontColor=#FEFAE0;" parent="160" vertex="1">
                    <mxGeometry x="191" width="119" height="41" as="geometry"/>
                </mxCell>
                <mxCell id="156" style="shape=partialRectangle;html=1;whiteSpace=wrap;collapsible=0;dropTarget=0;pointerEvents=0;fillColor=none;top=0;left=0;bottom=0;right=0;points=[[0,0.5],[1,0.5]];portConstraint=eastwest;strokeColor=#DDA15E;fontColor=#FEFAE0;" parent="105" vertex="1">
                    <mxGeometry y="154" width="310" height="41" as="geometry"/>
                </mxCell>
                <mxCell id="157" value="last_name" style="shape=partialRectangle;html=1;whiteSpace=wrap;connectable=0;fillColor=none;top=0;left=0;bottom=0;right=0;overflow=hidden;strokeColor=#DDA15E;fontColor=#FEFAE0;" parent="156" vertex="1">
                    <mxGeometry width="142" height="41" as="geometry"/>
                </mxCell>
                <mxCell id="158" value="&lt;span&gt;string&lt;/span&gt;" style="shape=partialRectangle;html=1;whiteSpace=wrap;connectable=0;fillColor=none;top=0;left=0;bottom=0;right=0;overflow=hidden;strokeColor=#DDA15E;fontColor=#FEFAE0;" parent="156" vertex="1">
                    <mxGeometry x="142" width="49" height="41" as="geometry"/>
                </mxCell>
                <mxCell id="159" value="&lt;span&gt;null:false&lt;/span&gt;" style="shape=partialRectangle;html=1;whiteSpace=wrap;connectable=0;fillColor=none;top=0;left=0;bottom=0;right=0;overflow=hidden;strokeColor=#DDA15E;fontColor=#FEFAE0;" parent="156" vertex="1">
                    <mxGeometry x="191" width="119" height="41" as="geometry"/>
                </mxCell>
                <mxCell id="106" value="" style="shape=partialRectangle;html=1;whiteSpace=wrap;collapsible=0;dropTarget=0;pointerEvents=0;fillColor=none;top=0;left=0;bottom=0;right=0;points=[[0,0.5],[1,0.5]];portConstraint=eastwest;strokeColor=#DDA15E;fontColor=#FEFAE0;" parent="105" vertex="1">
                    <mxGeometry y="195" width="310" height="42" as="geometry"/>
                </mxCell>
                <mxCell id="153" value="first_name" style="shape=partialRectangle;html=1;whiteSpace=wrap;connectable=0;fillColor=none;top=0;left=0;bottom=0;right=0;overflow=hidden;strokeColor=#DDA15E;fontColor=#FEFAE0;" parent="106" vertex="1">
                    <mxGeometry width="142" height="42" as="geometry"/>
                </mxCell>
                <mxCell id="107" value="&lt;span&gt;string&lt;/span&gt;" style="shape=partialRectangle;html=1;whiteSpace=wrap;connectable=0;fillColor=none;top=0;left=0;bottom=0;right=0;overflow=hidden;strokeColor=#DDA15E;fontColor=#FEFAE0;" parent="106" vertex="1">
                    <mxGeometry x="142" width="49" height="42" as="geometry"/>
                </mxCell>
                <mxCell id="144" value="&lt;span&gt;null:false&lt;/span&gt;" style="shape=partialRectangle;html=1;whiteSpace=wrap;connectable=0;fillColor=none;top=0;left=0;bottom=0;right=0;overflow=hidden;strokeColor=#DDA15E;fontColor=#FEFAE0;" parent="106" vertex="1">
                    <mxGeometry x="191" width="119" height="42" as="geometry"/>
                </mxCell>
                <mxCell id="110" value="" style="shape=partialRectangle;html=1;whiteSpace=wrap;collapsible=0;dropTarget=0;pointerEvents=0;fillColor=none;top=0;left=0;bottom=0;right=0;points=[[0,0.5],[1,0.5]];portConstraint=eastwest;strokeColor=#DDA15E;fontColor=#FEFAE0;" parent="105" vertex="1">
                    <mxGeometry y="237" width="310" height="41" as="geometry"/>
                </mxCell>
                <mxCell id="154" value="last_name_kana" style="shape=partialRectangle;html=1;whiteSpace=wrap;connectable=0;fillColor=none;top=0;left=0;bottom=0;right=0;overflow=hidden;strokeColor=#DDA15E;fontColor=#FEFAE0;" parent="110" vertex="1">
                    <mxGeometry width="142" height="41" as="geometry"/>
                </mxCell>
                <mxCell id="111" value="&lt;span&gt;string&lt;/span&gt;" style="shape=partialRectangle;html=1;whiteSpace=wrap;connectable=0;fillColor=none;top=0;left=0;bottom=0;right=0;overflow=hidden;strokeColor=#DDA15E;fontColor=#FEFAE0;" parent="110" vertex="1">
                    <mxGeometry x="142" width="49" height="41" as="geometry"/>
                </mxCell>
                <mxCell id="145" value="&lt;span&gt;null:false&lt;/span&gt;" style="shape=partialRectangle;html=1;whiteSpace=wrap;connectable=0;fillColor=none;top=0;left=0;bottom=0;right=0;overflow=hidden;strokeColor=#DDA15E;fontColor=#FEFAE0;" parent="110" vertex="1">
                    <mxGeometry x="191" width="119" height="41" as="geometry"/>
                </mxCell>
                <mxCell id="114" value="" style="shape=partialRectangle;html=1;whiteSpace=wrap;collapsible=0;dropTarget=0;pointerEvents=0;fillColor=none;top=0;left=0;bottom=0;right=0;points=[[0,0.5],[1,0.5]];portConstraint=eastwest;strokeColor=#DDA15E;fontColor=#FEFAE0;" parent="105" vertex="1">
                    <mxGeometry y="278" width="310" height="41" as="geometry"/>
                </mxCell>
                <mxCell id="155" value="first_name_kana" style="shape=partialRectangle;html=1;whiteSpace=wrap;connectable=0;fillColor=none;top=0;left=0;bottom=0;right=0;overflow=hidden;strokeColor=#DDA15E;fontColor=#FEFAE0;" parent="114" vertex="1">
                    <mxGeometry width="142" height="41" as="geometry"/>
                </mxCell>
                <mxCell id="115" value="&lt;span&gt;string&lt;/span&gt;" style="shape=partialRectangle;html=1;whiteSpace=wrap;connectable=0;fillColor=none;top=0;left=0;bottom=0;right=0;overflow=hidden;strokeColor=#DDA15E;fontColor=#FEFAE0;" parent="114" vertex="1">
                    <mxGeometry x="142" width="49" height="41" as="geometry"/>
                </mxCell>
                <mxCell id="146" value="&lt;span&gt;null:false&lt;/span&gt;" style="shape=partialRectangle;html=1;whiteSpace=wrap;connectable=0;fillColor=none;top=0;left=0;bottom=0;right=0;overflow=hidden;strokeColor=#DDA15E;fontColor=#FEFAE0;" parent="114" vertex="1">
                    <mxGeometry x="191" width="119" height="41" as="geometry"/>
                </mxCell>
                <mxCell id="189" value="" style="shape=partialRectangle;html=1;whiteSpace=wrap;collapsible=0;dropTarget=0;pointerEvents=0;fillColor=none;top=0;left=0;bottom=0;right=0;points=[[0,0.5],[1,0.5]];portConstraint=eastwest;strokeColor=#DDA15E;fontColor=#FEFAE0;" parent="105" vertex="1">
                    <mxGeometry y="319" width="310" height="41" as="geometry"/>
                </mxCell>
                <mxCell id="190" value="birth_date" style="shape=partialRectangle;html=1;whiteSpace=wrap;connectable=0;fillColor=none;top=0;left=0;bottom=0;right=0;overflow=hidden;strokeColor=#DDA15E;fontColor=#FEFAE0;" parent="189" vertex="1">
                    <mxGeometry width="142" height="41" as="geometry"/>
                </mxCell>
                <mxCell id="191" value="date" style="shape=partialRectangle;html=1;whiteSpace=wrap;connectable=0;fillColor=none;top=0;left=0;bottom=0;right=0;overflow=hidden;strokeColor=#DDA15E;fontColor=#FEFAE0;" parent="189" vertex="1">
                    <mxGeometry x="142" width="49" height="41" as="geometry"/>
                </mxCell>
                <mxCell id="192" value="&lt;span&gt;null:false&lt;/span&gt;" style="shape=partialRectangle;html=1;whiteSpace=wrap;connectable=0;fillColor=none;top=0;left=0;bottom=0;right=0;overflow=hidden;strokeColor=#DDA15E;fontColor=#FEFAE0;" parent="189" vertex="1">
                    <mxGeometry x="191" width="119" height="41" as="geometry"/>
                </mxCell>
                <mxCell id="66" value="&lt;font style=&quot;font-size: 18px&quot;&gt;items&lt;/font&gt;" style="shape=table;html=1;whiteSpace=wrap;startSize=30;container=1;collapsible=0;childLayout=tableLayout;fontStyle=1;align=center;rounded=0;sketch=0;fillColor=#fa6800;strokeColor=#C73500;fontColor=#ffffff;swimlaneFillColor=#4D4D4D;" parent="1" vertex="1">
                    <mxGeometry x="460" y="10" width="360" height="395" as="geometry"/>
                </mxCell>
                <mxCell id="80" value="" style="shape=partialRectangle;html=1;whiteSpace=wrap;collapsible=0;dropTarget=0;pointerEvents=0;fillColor=none;top=0;left=0;bottom=0;right=0;points=[[0,0.5],[1,0.5]];portConstraint=eastwest;strokeColor=#DDA15E;fontColor=#FEFAE0;" parent="66" vertex="1">
                    <mxGeometry y="30" width="360" height="37" as="geometry"/>
                </mxCell>
                <mxCell id="81" value="name" style="shape=partialRectangle;html=1;whiteSpace=wrap;connectable=0;fillColor=none;top=0;left=0;bottom=0;right=0;overflow=hidden;strokeColor=#DDA15E;fontColor=#FEFAE0;" parent="80" vertex="1">
                    <mxGeometry width="120" height="37" as="geometry"/>
                </mxCell>
                <mxCell id="82" value="string" style="shape=partialRectangle;html=1;whiteSpace=wrap;connectable=0;fillColor=none;top=0;left=0;bottom=0;right=0;overflow=hidden;strokeColor=#DDA15E;fontColor=#FEFAE0;" parent="80" vertex="1">
                    <mxGeometry x="120" width="120" height="37" as="geometry"/>
                </mxCell>
                <mxCell id="83" value="null:false" style="shape=partialRectangle;html=1;whiteSpace=wrap;connectable=0;fillColor=none;top=0;left=0;bottom=0;right=0;overflow=hidden;strokeColor=#DDA15E;fontColor=#FEFAE0;" parent="80" vertex="1">
                    <mxGeometry x="240" width="120" height="37" as="geometry"/>
                </mxCell>
                <mxCell id="84" value="" style="shape=partialRectangle;html=1;whiteSpace=wrap;collapsible=0;dropTarget=0;pointerEvents=0;fillColor=none;top=0;left=0;bottom=0;right=0;points=[[0,0.5],[1,0.5]];portConstraint=eastwest;strokeColor=#DDA15E;fontColor=#FEFAE0;" parent="66" vertex="1">
                    <mxGeometry y="67" width="360" height="37" as="geometry"/>
                </mxCell>
                <mxCell id="85" value="note" style="shape=partialRectangle;html=1;whiteSpace=wrap;connectable=0;fillColor=none;top=0;left=0;bottom=0;right=0;overflow=hidden;strokeColor=#DDA15E;fontColor=#FEFAE0;" parent="84" vertex="1">
                    <mxGeometry width="120" height="37" as="geometry"/>
                </mxCell>
                <mxCell id="86" value="text" style="shape=partialRectangle;html=1;whiteSpace=wrap;connectable=0;fillColor=none;top=0;left=0;bottom=0;right=0;overflow=hidden;strokeColor=#DDA15E;fontColor=#FEFAE0;" parent="84" vertex="1">
                    <mxGeometry x="120" width="120" height="37" as="geometry"/>
                </mxCell>
                <mxCell id="87" value="&lt;span&gt;null:false&lt;/span&gt;" style="shape=partialRectangle;html=1;whiteSpace=wrap;connectable=0;fillColor=none;top=0;left=0;bottom=0;right=0;overflow=hidden;strokeColor=#DDA15E;fontColor=#FEFAE0;" parent="84" vertex="1">
                    <mxGeometry x="240" width="120" height="37" as="geometry"/>
                </mxCell>
                <mxCell id="88" value="" style="shape=partialRectangle;html=1;whiteSpace=wrap;collapsible=0;dropTarget=0;pointerEvents=0;fillColor=none;top=0;left=0;bottom=0;right=0;points=[[0,0.5],[1,0.5]];portConstraint=eastwest;strokeColor=#DDA15E;fontColor=#FEFAE0;" parent="66" vertex="1">
                    <mxGeometry y="104" width="360" height="37" as="geometry"/>
                </mxCell>
                <mxCell id="89" value="category" style="shape=partialRectangle;html=1;whiteSpace=wrap;connectable=0;fillColor=none;top=0;left=0;bottom=0;right=0;overflow=hidden;strokeColor=#DDA15E;fontColor=#FEFAE0;" parent="88" vertex="1">
                    <mxGeometry width="120" height="37" as="geometry"/>
                </mxCell>
                <mxCell id="90" value="&lt;span&gt;string&lt;/span&gt;" style="shape=partialRectangle;html=1;whiteSpace=wrap;connectable=0;fillColor=none;top=0;left=0;bottom=0;right=0;overflow=hidden;strokeColor=#DDA15E;fontColor=#FEFAE0;" parent="88" vertex="1">
                    <mxGeometry x="120" width="120" height="37" as="geometry"/>
                </mxCell>
                <mxCell id="91" value="&lt;span&gt;null:false&lt;/span&gt;" style="shape=partialRectangle;html=1;whiteSpace=wrap;connectable=0;fillColor=none;top=0;left=0;bottom=0;right=0;overflow=hidden;strokeColor=#DDA15E;fontColor=#FEFAE0;" parent="88" vertex="1">
                    <mxGeometry x="240" width="120" height="37" as="geometry"/>
                </mxCell>
                <mxCell id="67" value="" style="shape=partialRectangle;html=1;whiteSpace=wrap;collapsible=0;dropTarget=0;pointerEvents=0;fillColor=none;top=0;left=0;bottom=0;right=0;points=[[0,0.5],[1,0.5]];portConstraint=eastwest;strokeColor=#DDA15E;fontColor=#FEFAE0;" parent="66" vertex="1">
                    <mxGeometry y="141" width="360" height="35" as="geometry"/>
                </mxCell>
                <mxCell id="68" value="condition" style="shape=partialRectangle;html=1;whiteSpace=wrap;connectable=0;fillColor=none;top=0;left=0;bottom=0;right=0;overflow=hidden;strokeColor=#DDA15E;fontColor=#FEFAE0;" parent="67" vertex="1">
                    <mxGeometry width="120" height="35" as="geometry"/>
                </mxCell>
                <mxCell id="69" value="&lt;span&gt;string&lt;/span&gt;" style="shape=partialRectangle;html=1;whiteSpace=wrap;connectable=0;fillColor=none;top=0;left=0;bottom=0;right=0;overflow=hidden;strokeColor=#DDA15E;fontColor=#FEFAE0;" parent="67" vertex="1">
                    <mxGeometry x="120" width="120" height="35" as="geometry"/>
                </mxCell>
                <mxCell id="70" value="&lt;span&gt;null:false&lt;/span&gt;" style="shape=partialRectangle;html=1;whiteSpace=wrap;connectable=0;fillColor=none;top=0;left=0;bottom=0;right=0;overflow=hidden;strokeColor=#DDA15E;fontColor=#FEFAE0;" parent="67" vertex="1">
                    <mxGeometry x="240" width="120" height="35" as="geometry"/>
                </mxCell>
                <mxCell id="71" value="" style="shape=partialRectangle;html=1;whiteSpace=wrap;collapsible=0;dropTarget=0;pointerEvents=0;fillColor=none;top=0;left=0;bottom=0;right=0;points=[[0,0.5],[1,0.5]];portConstraint=eastwest;strokeColor=#DDA15E;fontColor=#FEFAE0;" parent="66" vertex="1">
                    <mxGeometry y="176" width="360" height="39" as="geometry"/>
                </mxCell>
                <mxCell id="72" value="postage_player" style="shape=partialRectangle;html=1;whiteSpace=wrap;connectable=0;fillColor=none;top=0;left=0;bottom=0;right=0;overflow=hidden;strokeColor=#DDA15E;fontColor=#FEFAE0;" parent="71" vertex="1">
                    <mxGeometry width="120" height="39" as="geometry"/>
                </mxCell>
                <mxCell id="73" value="&lt;span&gt;string&lt;/span&gt;" style="shape=partialRectangle;html=1;whiteSpace=wrap;connectable=0;fillColor=none;top=0;left=0;bottom=0;right=0;overflow=hidden;strokeColor=#DDA15E;fontColor=#FEFAE0;" parent="71" vertex="1">
                    <mxGeometry x="120" width="120" height="39" as="geometry"/>
                </mxCell>
                <mxCell id="74" value="&lt;span&gt;null:false&lt;/span&gt;" style="shape=partialRectangle;html=1;whiteSpace=wrap;connectable=0;fillColor=none;top=0;left=0;bottom=0;right=0;overflow=hidden;strokeColor=#DDA15E;fontColor=#FEFAE0;" parent="71" vertex="1">
                    <mxGeometry x="240" width="120" height="39" as="geometry"/>
                </mxCell>
                <mxCell id="75" value="" style="shape=partialRectangle;html=1;whiteSpace=wrap;collapsible=0;dropTarget=0;pointerEvents=0;fillColor=none;top=0;left=0;bottom=0;right=0;points=[[0,0.5],[1,0.5]];portConstraint=eastwest;strokeColor=#DDA15E;fontColor=#FEFAE0;" parent="66" vertex="1">
                    <mxGeometry y="215" width="360" height="35" as="geometry"/>
                </mxCell>
                <mxCell id="76" value="prefecture" style="shape=partialRectangle;html=1;whiteSpace=wrap;connectable=0;fillColor=none;top=0;left=0;bottom=0;right=0;overflow=hidden;strokeColor=#DDA15E;fontColor=#FEFAE0;" parent="75" vertex="1">
                    <mxGeometry width="120" height="35" as="geometry"/>
                </mxCell>
                <mxCell id="77" value="&lt;span&gt;string&lt;/span&gt;" style="shape=partialRectangle;html=1;whiteSpace=wrap;connectable=0;fillColor=none;top=0;left=0;bottom=0;right=0;overflow=hidden;strokeColor=#DDA15E;fontColor=#FEFAE0;" parent="75" vertex="1">
                    <mxGeometry x="120" width="120" height="35" as="geometry"/>
                </mxCell>
                <mxCell id="78" value="&lt;span&gt;null:false&lt;/span&gt;" style="shape=partialRectangle;html=1;whiteSpace=wrap;connectable=0;fillColor=none;top=0;left=0;bottom=0;right=0;overflow=hidden;strokeColor=#DDA15E;fontColor=#FEFAE0;" parent="75" vertex="1">
                    <mxGeometry x="240" width="120" height="35" as="geometry"/>
                </mxCell>
                <mxCell id="193" value="" style="shape=partialRectangle;html=1;whiteSpace=wrap;collapsible=0;dropTarget=0;pointerEvents=0;fillColor=none;top=0;left=0;bottom=0;right=0;points=[[0,0.5],[1,0.5]];portConstraint=eastwest;strokeColor=#DDA15E;fontColor=#FEFAE0;" parent="66" vertex="1">
                    <mxGeometry y="250" width="360" height="38" as="geometry"/>
                </mxCell>
                <mxCell id="194" value="handling_time" style="shape=partialRectangle;html=1;whiteSpace=wrap;connectable=0;fillColor=none;top=0;left=0;bottom=0;right=0;overflow=hidden;strokeColor=#DDA15E;fontColor=#FEFAE0;" parent="193" vertex="1">
                    <mxGeometry width="120" height="38" as="geometry"/>
                </mxCell>
                <mxCell id="195" value="&lt;span&gt;string&lt;/span&gt;" style="shape=partialRectangle;html=1;whiteSpace=wrap;connectable=0;fillColor=none;top=0;left=0;bottom=0;right=0;overflow=hidden;strokeColor=#DDA15E;fontColor=#FEFAE0;" parent="193" vertex="1">
                    <mxGeometry x="120" width="120" height="38" as="geometry"/>
                </mxCell>
                <mxCell id="196" value="&lt;span&gt;null:false&lt;/span&gt;" style="shape=partialRectangle;html=1;whiteSpace=wrap;connectable=0;fillColor=none;top=0;left=0;bottom=0;right=0;overflow=hidden;strokeColor=#DDA15E;fontColor=#FEFAE0;" parent="193" vertex="1">
                    <mxGeometry x="240" width="120" height="38" as="geometry"/>
                </mxCell>
                <mxCell id="197" value="" style="shape=partialRectangle;html=1;whiteSpace=wrap;collapsible=0;dropTarget=0;pointerEvents=0;fillColor=none;top=0;left=0;bottom=0;right=0;points=[[0,0.5],[1,0.5]];portConstraint=eastwest;strokeColor=#DDA15E;fontColor=#FEFAE0;" parent="66" vertex="1">
                    <mxGeometry y="288" width="360" height="35" as="geometry"/>
                </mxCell>
                <mxCell id="198" value="price" style="shape=partialRectangle;html=1;whiteSpace=wrap;connectable=0;fillColor=none;top=0;left=0;bottom=0;right=0;overflow=hidden;strokeColor=#DDA15E;fontColor=#FEFAE0;" parent="197" vertex="1">
                    <mxGeometry width="120" height="35" as="geometry"/>
                </mxCell>
                <mxCell id="199" value="&lt;span&gt;string&lt;/span&gt;" style="shape=partialRectangle;html=1;whiteSpace=wrap;connectable=0;fillColor=none;top=0;left=0;bottom=0;right=0;overflow=hidden;strokeColor=#DDA15E;fontColor=#FEFAE0;" parent="197" vertex="1">
                    <mxGeometry x="120" width="120" height="35" as="geometry"/>
                </mxCell>
                <mxCell id="200" value="&lt;span&gt;null:false&lt;/span&gt;" style="shape=partialRectangle;html=1;whiteSpace=wrap;connectable=0;fillColor=none;top=0;left=0;bottom=0;right=0;overflow=hidden;strokeColor=#DDA15E;fontColor=#FEFAE0;" parent="197" vertex="1">
                    <mxGeometry x="240" width="120" height="35" as="geometry"/>
                </mxCell>
                <mxCell id="241" value="" style="shape=partialRectangle;html=1;whiteSpace=wrap;collapsible=0;dropTarget=0;pointerEvents=0;fillColor=none;top=0;left=0;bottom=0;right=0;points=[[0,0.5],[1,0.5]];portConstraint=eastwest;strokeColor=#DDA15E;fontColor=#FEFAE0;" parent="66" vertex="1">
                    <mxGeometry y="323" width="360" height="35" as="geometry"/>
                </mxCell>
                <mxCell id="242" value="image" style="shape=partialRectangle;html=1;whiteSpace=wrap;connectable=0;fillColor=none;top=0;left=0;bottom=0;right=0;overflow=hidden;strokeColor=#DDA15E;fontColor=#FEFAE0;" parent="241" vertex="1">
                    <mxGeometry width="120" height="35" as="geometry"/>
                </mxCell>
                <mxCell id="243" value="&lt;span&gt;string&lt;/span&gt;" style="shape=partialRectangle;html=1;whiteSpace=wrap;connectable=0;fillColor=none;top=0;left=0;bottom=0;right=0;overflow=hidden;strokeColor=#DDA15E;fontColor=#FEFAE0;" parent="241" vertex="1">
                    <mxGeometry x="120" width="120" height="35" as="geometry"/>
                </mxCell>
                <mxCell id="244" value="&lt;span&gt;null:false&lt;/span&gt;" style="shape=partialRectangle;html=1;whiteSpace=wrap;connectable=0;fillColor=none;top=0;left=0;bottom=0;right=0;overflow=hidden;strokeColor=#DDA15E;fontColor=#FEFAE0;" parent="241" vertex="1">
                    <mxGeometry x="240" width="120" height="35" as="geometry"/>
                </mxCell>
                <mxCell id="201" value="" style="shape=partialRectangle;html=1;whiteSpace=wrap;collapsible=0;dropTarget=0;pointerEvents=0;fillColor=none;top=0;left=0;bottom=0;right=0;points=[[0,0.5],[1,0.5]];portConstraint=eastwest;strokeColor=#DDA15E;fontColor=#FEFAE0;" parent="66" vertex="1">
                    <mxGeometry y="358" width="360" height="37" as="geometry"/>
                </mxCell>
                <mxCell id="202" value="user_id" style="shape=partialRectangle;html=1;whiteSpace=wrap;connectable=0;fillColor=none;top=0;left=0;bottom=0;right=0;overflow=hidden;strokeColor=#DDA15E;fontColor=#FEFAE0;" parent="201" vertex="1">
                    <mxGeometry width="120" height="37" as="geometry"/>
                </mxCell>
                <mxCell id="203" value="&lt;span&gt;references&lt;/span&gt;" style="shape=partialRectangle;html=1;whiteSpace=wrap;connectable=0;fillColor=none;top=0;left=0;bottom=0;right=0;overflow=hidden;strokeColor=#DDA15E;fontColor=#FEFAE0;" parent="201" vertex="1">
                    <mxGeometry x="120" width="120" height="37" as="geometry"/>
                </mxCell>
                <mxCell id="204" value="foreign_key: true" style="shape=partialRectangle;html=1;whiteSpace=wrap;connectable=0;fillColor=none;top=0;left=0;bottom=0;right=0;overflow=hidden;strokeColor=#DDA15E;fontColor=#FEFAE0;" parent="201" vertex="1">
                    <mxGeometry x="240" width="120" height="37" as="geometry"/>
                </mxCell>
                <mxCell id="237" value="" style="edgeStyle=entityRelationEdgeStyle;fontSize=12;html=1;endArrow=ERzeroToMany;startArrow=ERzeroToOne;strokeColor=#DDA15E;fillColor=#BC6C25;strokeWidth=2;" parent="1" source="201" target="205" edge="1">
                    <mxGeometry width="100" height="100" relative="1" as="geometry">
                        <mxPoint x="340" y="479" as="sourcePoint"/>
                        <mxPoint x="480" y="380" as="targetPoint"/>
                    </mxGeometry>
                </mxCell>
                <mxCell id="238" value="" style="edgeStyle=entityRelationEdgeStyle;fontSize=12;html=1;endArrow=ERzeroToMany;startArrow=ERzeroToOne;strokeColor=#DDA15E;fillColor=#BC6C25;strokeWidth=2;" parent="1" source="189" target="132" edge="1">
                    <mxGeometry width="100" height="100" relative="1" as="geometry">
                        <mxPoint x="160" y="370" as="sourcePoint"/>
                        <mxPoint x="360" y="720" as="targetPoint"/>
                    </mxGeometry>
                </mxCell>
                <mxCell id="240" value="" style="edgeStyle=entityRelationEdgeStyle;fontSize=12;html=1;endArrow=ERmandOne;startArrow=ERmandOne;strokeColor=#DDA15E;strokeWidth=2;fillColor=#BC6C25;exitX=1;exitY=0.9;exitDx=0;exitDy=0;exitPerimeter=0;entryX=0;entryY=0.5;entryDx=0;entryDy=0;" parent="1" source="205" target="221" edge="1">
                    <mxGeometry width="100" height="100" relative="1" as="geometry">
                        <mxPoint x="240" y="460" as="sourcePoint"/>
                        <mxPoint x="450" y="700" as="targetPoint"/>
                    </mxGeometry>
                </mxCell>
            </root>
        </mxGraphModel>
    </diagram>
</mxfile>